0
SECTION
2
TABLES
0
TABLE
2
LAYER
70
4
0
LAYER
2
RACK-A
62
1
70
0
0
LAYER
2
AISLE-MAIN
62
3
70
0
0
LAYER
2
ZONE-INBOUND
62
5
70
0
0
LAYER
2
AGV-01
62
6
70
0
0
ENDTAB
0
ENDSEC
0
SECTION
2
BLOCKS
0
BLOCK
2
RACK-CELL
10
0.0
20
0.0
0
ENDBLK
0
BLOCK
2
AGV-BOT
10
0.0
20
0.0
0
ENDBLK
0
ENDSEC
0
SECTION
2
ENTITIES
0
INSERT
8
RACK-A
2
RACK-CELL
10
100.0
20
50.0
0
INSERT
8
RACK-A
2
RACK-CELL
10
100.0
20
80.0
0
LINE
8
AISLE-MAIN
10
120.0
20
0.0
11
120.0
21
200.0
0
LWPOLYLINE
8
ZONE-INBOUND
90
4
70
1
10
0.0
20
0.0
10
60.0
20
0.0
10
60.0
20
40.0
10
0.0
20
40.0
0
ARC
8
ZONE-INBOUND
10
30.0
20
20.0
40
10.0
50
0.0
51
90.0
0
CIRCLE
8
RACK-A
10
100.0
20
65.0
40
2.5
0
INSERT
8
AGV-01
2
AGV-BOT
10
30.0
20
8.0
0
INSERT
8
AGV-01
2
AGV-BOT
10
45.0
20
8.0
0
TEXT
8
ZONE-INBOUND
10
10.0
20
10.0
40
3.5
1
Inbound Zone A
0
MTEXT
8
RACK-A
10
100.0
20
60.0
40
3.0
1
Rack Row A
0
ENDSEC
0
EOF
